<svg width="24" height="32" viewBox="0 0 24 32" fill="none" xmlns="http://www.w3.org/2000/svg">
<path d="M15.6343 12.948L12 16.6227L8.34857 12.948L5.93143 15.392L9.58286 19.0667L5.94857 22.7413L8.36571 25.1853L12 21.5107L15.6343 25.1853L18.0514 22.7413L14.4171 19.0667L18.0514 15.392L15.6343 12.948ZM18 1.73333L16.2857 0H7.71429L6 1.73333H0V5.2H24V1.73333H18ZM1.71429 27.7333C1.71429 29.64 3.25714 31.2 5.14286 31.2H18.8571C20.7429 31.2 22.2857 29.64 22.2857 27.7333V6.93333H1.71429V27.7333ZM5.14286 10.4H18.8571V27.7333H5.14286V10.4Z" fill="#F2F2F2"/>
</svg>
