<svg width="17" height="18" viewBox="0 0 17 18" fill="none" xmlns="http://www.w3.org/2000/svg">
<path d="M7.19424 14C7.19424 14.55 7.59892 15 8.09352 15C8.58813 15 8.9928 14.55 8.9928 14C8.9928 13.45 8.58813 13 8.09352 13C7.59892 13 7.19424 13.45 7.19424 14ZM7.19424 0V4H8.9928V2.08C12.0414 2.57 14.3885 5.47 14.3885 9C14.3885 12.87 11.5737 16 8.09352 16C4.61331 16 1.79856 12.87 1.79856 9C1.79856 7.32 2.32914 5.78 3.21942 4.58L8.09352 10L9.36151 8.59L3.2464 1.79V1.81C1.27698 3.45 0 6.05 0 9C0 13.97 3.61511 18 8.09352 18C12.5629 18 16.187 13.97 16.187 9C16.187 4.03 12.5629 0 8.09352 0H7.19424ZM13.4892 9C13.4892 8.45 13.0845 8 12.5899 8C12.0953 8 11.6906 8.45 11.6906 9C11.6906 9.55 12.0953 10 12.5899 10C13.0845 10 13.4892 9.55 13.4892 9ZM2.69784 9C2.69784 9.55 3.10252 10 3.59712 10C4.09172 10 4.4964 9.55 4.4964 9C4.4964 8.45 4.09172 8 3.59712 8C3.10252 8 2.69784 8.45 2.69784 9Z" fill="white" fill-opacity="0.42"/>
</svg>
